# Blender v2.68 (sub 0) OBJ File: 'untitled.blend'
# www.blender.org
o Cube
v 1.000000 -1.000000 -1.000000
v 1.000000 -1.000000 1.000000
v -1.000000 -1.000000 1.000000
v -1.000000 -1.000000 -1.000000
v 1.000000 1.000000 -0.999999
v 0.999999 1.000000 1.000001
v -1.000000 1.000000 1.000000
v -1.000000 1.000000 -1.000000
vt 0.375022 0.500061
vt 0.624978 0.499982
vt 0.375101 0.750017
vt 0.374941 0.250105
vt 0.374862 0.000147
vt 0.624899 0.250025
vt 0.874934 0.499902
vt 0.625057 0.749938
vt 0.625137 0.999894
vt 0.125066 0.500141
vt 0.125145 0.750097
vt 0.624820 0.000067
vt 0.875014 0.749858
vt 0.375181 0.999973
vn 0.000000 -1.000000 0.000000
vn -0.000000 1.000000 0.000000
vn 1.000000 -0.000000 0.000000
vn -0.000000 -0.000000 1.000000
vn -1.000000 -0.000000 -0.000000
vn 0.000000 0.000000 -1.000000
vn 1.000000 0.000000 0.000001
s off
f 1/1/1 2/2/1 4/3/1
f 5/4/2 8/5/2 6/6/2
f 1/1/3 5/4/3 2/2/3
f 2/2/4 6/7/4 3/8/4
f 3/8/5 7/9/5 4/3/5
f 5/10/6 1/1/6 8/11/6
f 2/2/1 3/8/1 4/3/1
f 8/5/2 7/12/2 6/6/2
f 5/4/7 6/6/7 2/2/7
f 6/7/4 7/13/4 3/8/4
f 7/9/5 8/14/5 4/3/5
f 1/1/6 4/3/6 8/11/6
