# Blender v2.68 (sub 0) OBJ File: 'right_crow_wing.blend'
# www.blender.org
o Cube.000_Cube.001
v 0.790310 0.264637 -0.356014
v 0.725231 0.247717 -0.290588
v 1.031218 0.243052 -0.187397
v 1.082622 0.215562 -0.081259
v 0.738068 0.256136 -0.328282
v 1.066909 0.232646 -0.127254
v 0.875343 0.238266 -0.205027
v 0.909950 0.253903 -0.272203
v 0.878988 0.246874 -0.246056
v 0.729369 0.268990 -0.393268
v 0.678734 0.260375 -0.364554
v 0.805044 0.224931 -0.125796
v 0.744041 0.222688 -0.113412
v 0.873792 0.192268 0.054554
v 0.860755 0.172732 0.131442
v 0.765552 0.225602 -0.129503
v 0.870532 0.183923 0.100634
v 0.794336 0.204281 -0.011774
v 0.839158 0.208703 -0.036191
v 0.812039 0.208132 -0.033041
v 0.785590 0.232654 -0.168445
v 0.746610 0.233122 -0.171028
v 0.694106 0.235845 -0.170247
v 0.636012 0.232707 -0.171581
v 0.720261 0.201045 0.007380
v 0.692922 0.180487 0.074249
v 0.658869 0.236127 -0.181738
v 0.707968 0.191917 0.048476
v 0.661279 0.213227 -0.069099
v 0.707062 0.218555 -0.082004
v 0.681713 0.217624 -0.084731
v 0.685007 0.244038 -0.212910
v 0.650010 0.244104 -0.223276
v 0.767552 0.231631 -0.162791
v 0.705727 0.230280 -0.155333
v 0.821156 0.198080 0.022465
v 0.801723 0.178779 0.098051
v 0.728497 0.232872 -0.169648
v 0.814097 0.189809 0.068131
v 0.747450 0.211204 -0.050005
v 0.794142 0.214962 -0.070752
v 0.766853 0.214786 -0.069783
v 0.751689 0.239611 -0.206856
v 0.713052 0.240642 -0.212552
v 0.784548 0.229590 -0.151526
v 0.728302 0.224681 -0.124417
v 0.897443 0.200858 0.007127
v 0.904590 0.181079 0.085181
v 0.745148 0.228480 -0.145393
v 0.906010 0.192586 0.052801
v 0.803174 0.209004 -0.037857
v 0.840597 0.215313 -0.072691
v 0.814993 0.213546 -0.062932
v 0.754737 0.236242 -0.188255
v 0.716123 0.234956 -0.181154
v 0.834257 0.239976 -0.208871
v 0.789380 0.232434 -0.167226
v 0.987486 0.218814 -0.092022
v 1.017639 0.200338 -0.020689
v 0.799010 0.236883 -0.191794
v 1.009084 0.211478 -0.051514
v 0.885471 0.221578 -0.107284
v 0.910351 0.229458 -0.150794
v 0.889157 0.226464 -0.134266
v 0.795326 0.244684 -0.234868
v 0.761106 0.241467 -0.217105
v 0.814760 0.239354 -0.205438
v 0.761205 0.232864 -0.169603
v 0.953879 0.212879 -0.059251
v 0.972928 0.192761 0.019615
v 0.775337 0.237191 -0.193497
v 0.969429 0.204634 -0.013726
v 0.850699 0.218765 -0.091752
v 0.883839 0.226197 -0.132790
v 0.859077 0.223722 -0.119120
v 0.778791 0.245388 -0.238753
v 0.740316 0.243066 -0.225933
v 0.789850 0.235932 -0.186541
v 0.733164 0.230113 -0.154413
v 0.918795 0.207398 -0.028985
v 0.931871 0.186862 0.051863
v 0.749227 0.234282 -0.177434
v 0.930975 0.198884 0.018023
v 0.817352 0.214711 -0.069366
v 0.853873 0.221752 -0.108247
v 0.827885 0.219591 -0.096313
v 0.756169 0.242492 -0.222763
v 0.716433 0.240669 -0.212701
v 0.739806 0.230388 -0.155930
v 0.681614 0.230335 -0.155638
v 0.769030 0.198216 0.021714
v 0.742519 0.180650 0.089759
v 0.704328 0.232299 -0.166480
v 0.757423 0.190679 0.063330
v 0.708664 0.211825 -0.053432
v 0.754287 0.214405 -0.067677
v 0.728858 0.214772 -0.069704
v 0.729967 0.238101 -0.198518
v 0.694747 0.239808 -0.207945
v 0.662772 0.233375 -0.172426
v 0.605096 0.234755 -0.180043
v 0.666790 0.200792 0.007487
v 0.630856 0.183998 0.071270
v 0.629113 0.236141 -0.187695
v 0.649454 0.193613 0.047128
v 0.617546 0.215757 -0.075141
v 0.664731 0.217189 -0.083051
v 0.639830 0.218178 -0.088513
v 0.659003 0.241256 -0.215943
v 0.625443 0.243814 -0.230065
v 0.605633 0.233341 -0.172235
v 0.551523 0.233657 -0.173983
v 0.626434 0.203248 -0.006072
v 0.599316 0.187081 0.056266
v 0.573028 0.235340 -0.183274
v 0.614152 0.196314 0.032214
v 0.573007 0.216279 -0.078028
v 0.615932 0.218391 -0.089687
v 0.592364 0.218892 -0.092454
v 0.598012 0.240573 -0.212169
v 0.565607 0.242382 -0.222155
v 0.479948 0.227989 -0.142683
v 0.522223 0.233044 -0.170599
v 0.547471 0.202139 0.000049
v 0.601091 0.199859 0.037967
v 0.500367 0.232478 -0.167469
v 0.576648 0.197699 0.024567
v 0.553660 0.217276 -0.083531
v 0.513520 0.215150 -0.071793
v 0.530918 0.217642 -0.085551
v 0.465812 0.234434 -0.178271
v 0.486603 0.238753 -0.202119
v 0.446328 0.237908 -0.197453
v 0.397996 0.235056 -0.181707
v 0.519518 0.212553 -0.057452
v 0.516438 0.196442 0.006180
v 0.413909 0.237786 -0.196778
v 0.521312 0.205723 -0.019738
v 0.448622 0.220962 -0.103886
v 0.482657 0.225310 -0.127891
v 0.460944 0.224388 -0.122803
v 0.426424 0.243850 -0.230261
v 0.394530 0.243571 -0.228721
v 0.302496 0.239690 -0.207295
v 0.335103 0.246658 -0.245769
v 0.408035 0.218260 -0.088964
v 0.470089 0.218933 -0.067356
v 0.315019 0.245020 -0.236726
v 0.443036 0.215459 -0.073495
v 0.390123 0.233098 -0.170892
v 0.354948 0.229048 -0.148534
v 0.367719 0.232310 -0.166546
v 0.278772 0.245169 -0.237545
v 0.291921 0.250354 -0.266178
v 0.759579 0.259506 -0.327683
v 0.694500 0.242586 -0.262257
v 1.000488 0.237921 -0.159067
v 1.051892 0.210431 -0.052928
v 0.707337 0.251006 -0.299951
v 1.036178 0.227515 -0.098923
v 0.844612 0.233135 -0.176696
v 0.879219 0.248772 -0.243873
v 0.848258 0.241743 -0.217725
v 0.698639 0.263859 -0.364937
v 0.648003 0.255244 -0.336223
v 0.831893 0.266483 -0.355237
v 0.777198 0.253696 -0.284628
v 1.081290 0.242440 -0.222479
v 1.142292 0.216949 -0.126611
v 0.785155 0.260525 -0.322339
v 1.122255 0.232768 -0.169074
v 0.930371 0.242103 -0.220619
v 0.955757 0.254531 -0.289238
v 0.929167 0.249312 -0.260422
v 0.769422 0.271627 -0.383640
v 0.724331 0.265534 -0.349993
v 0.839327 0.272629 -0.389173
v 0.798174 0.260213 -0.320611
v 1.075677 0.255899 -0.296793
v 1.140430 0.234292 -0.217741
v 0.801222 0.266445 -0.355024
v 1.117883 0.248054 -0.253475
v 0.941457 0.252764 -0.279485
v 0.956718 0.264310 -0.343234
v 0.936121 0.259162 -0.314812
v 0.780644 0.276037 -0.407992
v 0.744086 0.269763 -0.373347
v 0.795501 0.283665 -0.450107
v 0.759752 0.270709 -0.378572
v 1.038607 0.270186 -0.375681
v 1.109488 0.249480 -0.301648
v 0.760120 0.276972 -0.413152
v 1.084104 0.262930 -0.335618
v 0.905974 0.265228 -0.348303
v 0.916252 0.276960 -0.413086
v 0.897901 0.271541 -0.383164
v 0.735461 0.286267 -0.464476
v 0.701662 0.279506 -0.427142
v 0.129980 0.246147 -0.315801
v 0.141204 0.271750 -0.384320
v 0.561323 0.304532 -0.565329
v 0.566689 0.264728 -0.428791
v 0.120078 0.247751 -0.251804
v 0.129980 0.271698 -0.311174
v 0.566689 0.293923 -0.423504
v 0.356541 0.230294 -0.155413
v 0.839416 0.280381 -0.431977
v 0.830578 0.255005 -0.291856
v 0.704063 0.204411 -0.012495
vt 0.876630 0.656934
vt 0.873546 0.858098
vt 0.903679 0.801787
vt 0.842619 0.673910
vt 0.843563 0.892941
vt 0.837740 0.517718
vt 0.873546 0.509389
vt 0.912069 0.668050
vt 0.920460 0.536040
vt 0.920460 0.471418
vt 0.873546 0.446471
vt 0.557625 0.747171
vt 0.555578 0.880759
vt 0.575580 0.843378
vt 0.535049 0.758429
vt 0.535439 0.903805
vt 0.531810 0.654702
vt 0.555578 0.649187
vt 0.581150 0.754569
vt 0.586719 0.666907
vt 0.586719 0.623993
vt 0.555578 0.607404
vt 0.340457 0.738039
vt 0.338545 0.862850
vt 0.357227 0.827918
vt 0.319371 0.748564
vt 0.320029 0.884365
vt 0.316345 0.651655
vt 0.338545 0.646496
vt 0.362430 0.744944
vt 0.367632 0.663041
vt 0.367632 0.622947
vt 0.338545 0.607458
vt 0.680214 0.747168
vt 0.678167 0.880754
vt 0.698169 0.843374
vt 0.657638 0.758424
vt 0.658031 0.903809
vt 0.654399 0.654700
vt 0.678168 0.649187
vt 0.703739 0.754567
vt 0.709309 0.666908
vt 0.709309 0.623994
vt 0.678168 0.607404
vt 0.502557 0.747944
vt 0.500499 0.882271
vt 0.520610 0.844679
vt 0.479858 0.759268
vt 0.480244 0.905412
vt 0.476601 0.654968
vt 0.500499 0.649418
vt 0.526210 0.755378
vt 0.531810 0.667230
vt 0.531810 0.624078
vt 0.500499 0.607404
vt 0.625587 0.745818
vt 0.623560 0.878114
vt 0.643368 0.841086
vt 0.603230 0.756976
vt 0.603615 0.900868
vt 0.600022 0.654254
vt 0.623560 0.648783
vt 0.648884 0.753134
vt 0.654399 0.666318
vt 0.654399 0.623819
vt 0.623560 0.607404
vt 0.736149 0.752730
vt 0.734021 0.891632
vt 0.754817 0.852757
vt 0.712677 0.764442
vt 0.713077 0.915542
vt 0.709309 0.656591
vt 0.734021 0.650849
vt 0.760608 0.760414
vt 0.766399 0.669264
vt 0.766399 0.624642
vt 0.734021 0.607404
vt 0.446047 0.754196
vt 0.443897 0.894499
vt 0.464903 0.855233
vt 0.422338 0.766025
vt 0.422741 0.918660
vt 0.418936 0.657085
vt 0.443897 0.651287
vt 0.470752 0.761959
vt 0.476601 0.669890
vt 0.476601 0.624818
vt 0.443897 0.607404
vt 0.024119 0.738030
vt 0.022207 0.862828
vt 0.040895 0.827908
vt 0.003026 0.748544
vt 0.003400 0.884380
vt 0.000000 0.651641
vt 0.022207 0.646492
vt 0.046098 0.744943
vt 0.051302 0.663050
vt 0.051302 0.622959
vt 0.022207 0.607458
vt 0.391752 0.738023
vt 0.389839 0.862815
vt 0.408528 0.827898
vt 0.370658 0.748536
vt 0.371041 0.884380
vt 0.367632 0.651638
vt 0.389839 0.646490
vt 0.413732 0.744938
vt 0.418936 0.663049
vt 0.418936 0.622959
vt 0.389839 0.607458
vt 0.073741 0.728931
vt 0.071962 0.845034
vt 0.089348 0.812547
vt 0.054117 0.738712
vt 0.054467 0.865087
vt 0.051302 0.648562
vt 0.071962 0.643772
vt 0.094189 0.735363
vt 0.099030 0.659177
vt 0.099030 0.621879
vt 0.071962 0.607458
vt 0.120137 0.721700
vt 0.139371 0.727744
vt 0.134817 0.800335
vt 0.101679 0.730905
vt 0.102061 0.849717
vt 0.099030 0.646121
vt 0.118463 0.641611
vt 0.143924 0.656090
vt 0.118463 0.607458
vt 0.247671 0.721700
vt 0.245998 0.830892
vt 0.262346 0.800336
vt 0.229219 0.730903
vt 0.229534 0.849716
vt 0.226571 0.646120
vt 0.245998 0.641611
vt 0.266898 0.727745
vt 0.271450 0.656092
vt 0.245998 0.607458
vt 0.292557 0.721698
vt 0.311792 0.727742
vt 0.307238 0.800331
vt 0.274099 0.730902
vt 0.274488 0.849725
vt 0.271450 0.646120
vt 0.290884 0.641610
vt 0.316345 0.656090
vt 0.290884 0.607458
vt 0.876630 0.210464
vt 0.873546 0.411628
vt 0.903679 0.355316
vt 0.842619 0.227439
vt 0.843563 0.446471
vt 0.837740 0.071248
vt 0.873546 0.062919
vt 0.912069 0.221579
vt 0.920460 0.089569
vt 0.920460 0.024947
vt 0.873546 0.000000
vt 0.957855 0.648917
vt 0.954890 0.842417
vt 0.983864 0.788255
vt 0.925152 0.665240
vt 0.925727 0.875667
vt 0.920460 0.514998
vt 0.954890 0.506992
vt 0.991932 0.659614
vt 1.000000 0.532635
vt 1.000000 0.470475
vt 0.954890 0.446471
vt 0.799939 0.788967
vt 0.797280 0.962507
vt 0.823267 0.913931
vt 0.770607 0.803608
vt 0.771133 0.992310
vt 0.766399 0.668865
vt 0.797280 0.661683
vt 0.830504 0.798559
vt 0.837740 0.684678
vt 0.837740 0.628930
vt 0.797280 0.607404
vt 0.954039 0.242916
vt 0.951377 0.416647
vt 0.977394 0.368017
vt 0.924673 0.257574
vt 0.925208 0.446471
vt 0.920460 0.122682
vt 0.951377 0.115492
vt 0.984639 0.252518
vt 0.991884 0.138511
vt 0.991884 0.082702
vt 0.951376 0.061153
vt 0.145413 0.607458
vt 0.167017 0.661840
vt 0.167017 0.728689
vt 0.363164 0.015781
vt 0.116020 0.340178
vt 0.000000 0.286420
vt 0.535331 0.267615
vt 0.418936 0.321071
vt 0.557144 0.000000
vt 0.837310 0.347025
vt 0.837740 0.578214
vt 0.782346 0.591897
vt 0.718139 0.607404
vt 0.418506 0.260350
vt 0.418936 0.029157
vt 0.138251 0.607458
vt 0.118463 0.830892
vt 0.143924 0.621013
vt 0.271450 0.621015
vt 0.290884 0.830888
vt 0.316345 0.621013
vt 0.143924 0.665955
vt 0.299297 0.000000
vt 0.435365 0.042120
vt 0.837740 0.006812
vt 0.418936 0.600569
vt 0.016434 0.565370
vn -0.052717 0.978265 0.200548
vn -0.014623 0.978850 0.204055
vn -0.052717 0.978264 0.200548
vn 0.000000 0.983993 0.178206
vn 0.029593 0.978953 0.201927
vn -0.057419 0.978096 0.200079
vn -0.033679 0.972703 0.229595
vn -0.057420 0.978096 0.200079
vn 0.000001 0.983993 0.178206
vn 0.027523 0.978538 0.204218
vn 0.000001 0.983993 0.178205
vn 0.034702 0.980405 0.193913
vn 0.000000 0.983993 0.178205
vn 0.037912 0.982365 0.183090
vn 0.036628 0.981307 0.188931
vn -0.000001 0.983993 0.178206
vn 0.035704 0.980826 0.191587
vn 0.024236 0.977999 0.207198
vn 0.000002 0.983993 0.178206
vn 0.019917 0.977453 0.210212
vn -0.000002 0.983993 0.178206
vn 0.023096 0.977839 0.208081
vn 0.003438 0.990062 0.140587
vn 0.032205 0.979594 0.198388
vn -0.000000 -0.983993 -0.178206
vn -0.007399 0.989961 0.141145
vn -0.052717 0.978265 0.200547
vn -0.052718 0.978264 0.200548
vn 0.038236 0.983476 0.176955
vn 0.037837 0.984275 0.172542
vn 0.037297 0.984788 0.169713
vn -0.987905 0.032744 -0.151562
vn -0.031242 0.996639 0.075734
vn 0.111308 -0.952887 -0.282163
vn -0.016951 -0.990319 -0.137768
vn -0.082927 -0.928982 -0.360715
vn -0.016951 0.975736 0.218294
vn 0.020256 -0.993769 -0.109601
vn 0.020256 0.969088 0.245882
vn 0.111307 0.991322 0.069942
vn -0.182576 0.899677 0.396545
vn -0.225935 0.936422 0.268454
vn -0.296752 0.925074 0.237017
vn -0.233102 0.939756 0.250045
vn -0.194540 0.926930 0.320865
vn -0.141233 0.917867 0.370909
vn -0.171327 0.922302 0.346419
vn -0.184008 0.924665 0.333370
vn -0.240674 0.944696 0.222765
vn -0.245392 0.950705 0.189588
vn -0.242430 0.946329 0.213752
vn -0.227708 0.937176 0.264291
vn -0.213124 0.931868 0.293598
vn -0.192416 0.926447 0.323529
vn -0.182576 0.899676 0.396546
vn -0.106588 0.914250 0.390878
vn -0.079798 0.912292 0.401691
vn -0.061788 0.911327 0.407020
vn -0.987905 0.022490 -0.153419
vn -0.082927 0.996483 -0.012004
vn 0.050984 -0.998157 0.032910
vn -0.031242 -0.959898 -0.278604
vn 0.050984 0.923218 0.380880
s off
f 9/1/1 6/2/1 3/3/1
f 7/4/2 4/5/2 9/1/2
f 2/6/1 7/4/1 5/7/1
f 5/7/1 9/1/1 8/8/1
f 1/9/3 10/10/3 11/11/3
f 20/12/4 17/13/4 14/14/4
f 18/15/5 15/16/5 20/12/5
f 13/17/4 18/15/4 16/18/4
f 16/18/4 20/12/4 19/19/4
f 12/20/4 21/21/4 22/22/4
f 31/23/6 28/24/6 25/25/6
f 29/26/7 26/27/7 31/23/7
f 24/28/8 29/26/8 27/29/8
f 27/29/8 31/23/8 30/30/8
f 23/31/8 32/32/8 33/33/8
f 42/34/9 39/35/9 36/36/9
f 40/37/10 37/38/10 42/34/10
f 35/39/4 40/37/4 38/40/4
f 38/40/11 42/34/11 41/41/11
f 34/42/4 43/43/4 44/44/4
f 53/45/4 50/46/4 47/47/4
f 51/48/12 48/49/12 53/45/12
f 46/50/4 51/48/4 49/51/4
f 49/51/11 53/45/11 52/52/11
f 45/53/13 54/54/13 55/55/13
f 64/56/4 61/57/4 58/58/4
f 62/59/14 59/60/14 64/56/14
f 57/61/4 62/59/4 60/62/4
f 60/62/4 64/56/4 63/63/4
f 56/64/4 65/65/4 66/66/4
f 75/67/4 72/68/4 69/69/4
f 73/70/15 70/71/15 75/67/15
f 68/72/4 73/70/4 71/73/4
f 71/73/13 75/67/13 74/74/13
f 67/75/4 76/76/4 77/77/4
f 86/78/16 83/79/16 80/80/16
f 84/81/17 81/82/17 86/78/17
f 79/83/4 84/81/4 82/84/4
f 82/84/4 86/78/4 85/85/4
f 78/86/13 87/87/13 88/88/13
f 97/89/9 94/90/9 91/91/9
f 95/92/18 92/93/18 97/89/18
f 90/94/16 95/92/16 93/95/16
f 93/95/9 97/89/9 96/96/9
f 89/97/4 98/98/4 99/99/4
f 108/100/19 105/101/19 102/102/19
f 106/103/20 103/104/20 108/100/20
f 101/105/4 106/103/4 104/106/4
f 104/106/9 108/100/9 107/107/9
f 100/108/4 109/109/4 110/110/4
f 119/111/21 116/112/21 113/113/21
f 117/114/22 114/115/22 119/111/22
f 112/116/4 117/114/4 115/117/4
f 115/117/16 119/111/16 118/118/16
f 111/119/4 120/120/4 121/121/4
f 130/122/11 129/123/11 124/124/11
f 128/125/23 130/122/23 125/126/23
f 123/127/4 126/128/4 128/125/4
f 126/128/4 122/129/4 129/123/4
f 122/129/4 126/128/4 132/130/4
f 141/131/11 138/132/11 135/133/11
f 139/134/24 136/135/24 141/131/24
f 134/136/4 139/134/4 137/137/4
f 137/137/4 141/131/4 140/138/4
f 133/139/25 137/137/25 143/140/25
f 152/141/16 151/142/16 146/143/16
f 150/144/26 152/141/26 147/145/26
f 145/146/25 150/144/25 148/147/25
f 148/147/4 144/148/4 151/142/4
f 144/148/4 148/147/4 154/149/4
f 163/150/27 160/151/27 157/152/27
f 161/153/2 158/154/2 163/150/2
f 156/155/28 161/153/28 159/156/28
f 159/156/27 163/150/27 162/157/27
f 155/158/3 164/159/3 165/160/3
f 174/161/4 171/162/4 168/163/4
f 172/164/29 169/165/29 174/161/29
f 167/166/13 172/164/13 170/167/13
f 170/167/13 174/161/13 173/168/13
f 166/169/13 175/170/13 176/171/13
f 185/172/4 182/173/4 179/174/4
f 183/175/30 180/176/30 185/172/30
f 178/177/13 183/175/13 181/178/13
f 181/178/13 185/172/13 184/179/13
f 177/180/4 186/181/4 187/182/4
f 196/183/13 193/184/13 190/185/13
f 194/186/31 191/187/31 196/183/31
f 189/188/4 194/186/4 192/189/4
f 192/189/4 196/183/4 195/190/4
f 188/191/13 197/192/13 198/193/13
f 203/194/32 204/195/32 200/196/32
f 204/197/33 205/198/33 201/199/33
f 202/200/34 201/201/34 208/202/34
f 206/203/35 203/204/35 202/200/35
f 199/205/36 200/206/36 201/201/36
f 206/207/37 205/198/37 203/208/37
f 206/203/38 202/200/38 208/202/38
f 205/198/39 206/207/39 208/209/39
f 201/199/40 205/198/40 208/209/40
f 8/8/3 9/1/3 3/3/3
f 4/5/41 6/2/41 9/1/41
f 7/4/1 9/1/1 5/7/1
f 1/9/1 5/7/1 8/8/1
f 5/7/3 1/9/3 11/11/3
f 19/19/4 20/12/4 14/14/4
f 15/16/42 17/13/42 20/12/42
f 18/15/4 20/12/4 16/18/4
f 12/20/13 16/18/13 19/19/13
f 16/18/4 12/20/4 22/22/4
f 30/30/8 31/23/8 25/25/8
f 26/27/43 28/24/43 31/23/43
f 29/26/6 31/23/6 27/29/6
f 23/31/6 27/29/6 30/30/6
f 27/29/6 23/31/6 33/33/6
f 41/41/9 42/34/9 36/36/9
f 37/38/44 39/35/44 42/34/44
f 40/37/4 42/34/4 38/40/4
f 34/42/4 38/40/4 41/41/4
f 38/40/4 34/42/4 44/44/4
f 52/52/11 53/45/11 47/47/11
f 48/49/45 50/46/45 53/45/45
f 51/48/4 53/45/4 49/51/4
f 45/53/4 49/51/4 52/52/4
f 49/51/4 45/53/4 55/55/4
f 63/63/4 64/56/4 58/58/4
f 59/60/46 61/57/46 64/56/46
f 62/59/13 64/56/13 60/62/13
f 56/64/13 60/62/13 63/63/13
f 60/62/13 56/64/13 66/66/13
f 74/74/13 75/67/13 69/69/13
f 70/71/47 72/68/47 75/67/47
f 73/70/4 75/67/4 71/73/4
f 67/75/4 71/73/4 74/74/4
f 71/73/4 67/75/4 77/77/4
f 85/85/13 86/78/13 80/80/13
f 81/82/48 83/79/48 86/78/48
f 84/81/13 86/78/13 82/84/13
f 78/86/4 82/84/4 85/85/4
f 82/84/4 78/86/4 88/88/4
f 96/96/9 97/89/9 91/91/9
f 92/93/49 94/90/49 97/89/49
f 95/92/4 97/89/4 93/95/4
f 89/97/4 93/95/4 96/96/4
f 93/95/11 89/97/11 99/99/11
f 107/107/9 108/100/9 102/102/9
f 103/104/50 105/101/50 108/100/50
f 106/103/4 108/100/4 104/106/4
f 100/108/4 104/106/4 107/107/4
f 104/106/4 100/108/4 110/110/4
f 118/118/16 119/111/16 113/113/16
f 114/115/51 116/112/51 119/111/51
f 117/114/4 119/111/4 115/117/4
f 111/119/4 115/117/4 118/118/4
f 115/117/4 111/119/4 121/121/4
f 127/210/4 130/122/4 124/124/4
f 130/122/52 127/210/52 125/126/52
f 126/128/4 130/122/4 128/125/4
f 130/122/9 126/128/9 129/123/9
f 131/211/4 122/129/4 132/130/4
f 140/138/4 141/131/4 135/133/4
f 136/135/53 138/132/53 141/131/53
f 139/134/4 141/131/4 137/137/4
f 133/139/4 137/137/4 140/138/4
f 142/212/25 133/139/25 143/140/25
f 149/213/9 152/141/9 146/143/9
f 152/141/54 149/213/54 147/145/54
f 150/144/25 152/141/25 148/147/25
f 152/141/4 148/147/4 151/142/4
f 153/214/4 144/148/4 154/149/4
f 162/157/27 163/150/27 157/152/27
f 158/154/55 160/151/55 163/150/55
f 161/153/1 163/150/1 159/156/1
f 155/158/27 159/156/27 162/157/27
f 159/156/27 155/158/27 165/160/27
f 173/168/13 174/161/13 168/163/13
f 169/165/56 171/162/56 174/161/56
f 172/164/4 174/161/4 170/167/4
f 166/169/13 170/167/13 173/168/13
f 170/167/4 166/169/4 176/171/4
f 184/179/13 185/172/13 179/174/13
f 180/176/57 182/173/57 185/172/57
f 183/175/4 185/172/4 181/178/4
f 177/180/4 181/178/4 184/179/4
f 181/178/4 177/180/4 187/182/4
f 195/190/4 196/183/4 190/185/4
f 191/187/58 193/184/58 196/183/58
f 194/186/4 196/183/4 192/189/4
f 188/191/13 192/189/13 195/190/13
f 192/189/13 188/191/13 198/193/13
f 199/215/59 203/194/59 200/196/59
f 200/216/60 204/197/60 201/199/60
f 201/201/25 207/217/25 208/202/25
f 203/204/61 199/205/61 202/200/61
f 202/200/62 199/205/62 201/201/62
f 205/198/63 204/197/63 203/208/63
f 209/218/25 206/203/25 208/202/25
f 206/207/4 209/219/4 208/209/4
f 207/220/4 201/199/4 208/209/4
