# Blender v2.68 (sub 0) OBJ File: 'grass.blend'
# www.blender.org
o Plane
v 5.998435 0.000000 5.998435
v -5.998435 0.000000 5.998435
v 5.998435 0.000000 -5.998435
v -5.998435 0.000000 -5.998435
v 0.000000 0.000000 5.998435
v 0.000000 0.000000 -5.998435
v 5.998435 0.000000 0.000000
v -5.998435 0.000000 0.000000
v 0.000000 0.000000 0.000000
v -2.999218 0.000000 5.998435
v -2.999218 0.000000 -5.998435
v 5.998435 0.000000 -2.999218
v -5.998435 0.000000 2.999218
v 2.999218 0.000000 5.998435
v 2.999218 0.000000 -5.998435
v 5.998435 0.000000 2.999218
v -5.998435 0.000000 -2.999218
v 0.000000 0.000000 -2.999218
v 0.000000 0.000000 2.999218
v -2.949954 0.056619 0.125305
v 2.999218 0.000000 0.000000
v 2.926632 -0.205550 -2.862006
v -3.191936 0.183672 -2.893957
v -3.009696 -0.048029 3.033711
v 2.891073 0.357670 2.908014
v -3.998957 0.000000 5.998435
v -4.998696 0.000000 5.998435
v -3.998957 0.000000 -5.998435
v -4.998696 0.000000 -5.998435
v 5.998435 0.000000 -3.998957
v 5.998435 0.000000 -4.998696
v -5.998435 0.000000 3.998957
v -5.998435 0.000000 4.998696
v 3.998957 0.000000 5.998435
v 4.998696 0.000000 5.998435
v 3.998957 0.000000 -5.998435
v 4.998696 0.000000 -5.998435
v 5.998435 0.000000 3.998957
v 5.998435 0.000000 4.998696
v -5.998435 0.000000 -3.998957
v -5.998435 0.000000 -4.998696
v 0.000000 0.000000 -3.998957
v 0.000000 0.000000 -4.998696
v 0.000000 0.000000 3.998957
v 0.000000 0.000000 4.998696
v -3.949693 0.056619 0.125305
v -4.985155 0.129241 0.048107
v 1.999478 0.000000 0.000000
v 0.999739 0.000000 0.000000
v -1.999478 0.000000 5.998435
v -0.999739 0.000000 5.998435
v -1.999478 0.000000 -5.998435
v -0.999739 0.000000 -5.998435
v 5.998435 0.000000 -1.999478
v 5.998435 0.000000 -0.999739
v -5.998435 0.000000 1.999478
v -5.998435 0.000000 0.999739
v 1.999478 0.000000 5.998435
v 0.999739 0.000000 5.998435
v 1.999478 0.000000 -5.998435
v 0.999739 0.000000 -5.998435
v 5.998435 0.000000 1.999478
v 5.998435 0.000000 0.999739
v -5.998435 0.000000 -1.999478
v -5.998435 0.000000 -0.999739
v 0.000000 0.000000 -1.999478
v 0.000000 0.000000 -0.999739
v 0.000000 0.000000 1.999478
v -0.010478 -0.048029 1.034233
v -1.999478 0.000000 0.000000
v -0.999739 0.000000 0.000000
v 3.998957 0.000000 0.000000
v 4.998696 0.000000 0.000000
v 2.999218 0.000000 -3.998957
v 2.842031 -0.106136 -4.836744
v 2.999218 0.000000 -1.999478
v 2.999218 0.000000 -0.999739
v 1.842292 -0.106136 -2.837266
v 1.084340 -0.099413 -3.023958
v 5.122924 -0.039117 -2.896130
v 3.841770 -0.106136 -2.837266
v -3.113320 0.138107 -4.021136
v -3.263469 0.196629 -4.839417
v -3.191936 0.183672 -1.894218
v -2.985676 0.129241 -0.951632
v -3.847185 0.170010 -2.884020
v -4.998696 0.000000 -2.999218
v -0.999739 0.000000 -2.999218
v -1.999478 0.000000 -2.999218
v -2.999218 0.000000 1.999478
v -2.999218 0.000000 0.999739
v -3.003390 -0.101151 4.080601
v -2.928456 0.018062 5.078073
v -3.968842 -0.037860 2.883665
v -5.006645 -0.058589 3.050990
v -0.999739 0.000000 2.999218
v -2.006179 -0.090591 3.063583
v 2.999218 0.304139 1.999478
v 2.999218 0.158605 0.999739
v 3.202148 0.238632 4.071654
v 2.999218 0.000000 4.998696
v 2.007412 0.188809 2.926519
v 0.999739 0.158605 2.999218
v 4.998696 0.000000 2.999218
v 3.998957 0.145534 2.999218
v 3.965998 -0.145253 -3.733917
v 3.998957 0.000000 -4.998696
v 5.122924 -0.039117 -3.895869
v 4.998696 0.000000 -4.998696
v -1.999478 0.000000 -3.998957
v -1.999478 0.000000 -4.998696
v -0.999739 0.000000 -3.998957
v -0.999739 0.000000 -4.998696
v -2.001826 -0.065968 1.908384
v -2.012304 -0.113997 0.943138
v -1.007689 -0.058589 2.051251
v -1.002087 -0.065968 0.908645
v 3.949771 0.250462 1.935800
v 3.998957 0.000000 0.999739
v 4.998696 0.000000 1.999478
v 4.998696 0.000000 0.999739
v 0.999739 0.000000 -3.998957
v 0.999739 0.000000 -4.998696
v 2.084079 -0.099413 -4.023697
v 1.999478 0.000000 -4.998696
v 0.989261 -0.048029 -0.965245
v 0.999739 0.000000 -1.999478
v 2.084079 -0.099413 -1.024480
v 2.084079 -0.099413 -2.024219
v 3.998957 0.000000 -0.999739
v 3.998957 0.000000 -1.999478
v 4.998696 0.000000 -0.999739
v 4.998696 0.000000 -1.999478
v -4.998696 0.000000 -3.998957
v -4.998696 0.000000 -4.998696
v -4.037740 0.194823 -3.796962
v -3.837250 0.139876 -4.956308
v -4.980972 0.055228 -1.159940
v -4.998696 0.000000 -1.999478
v -3.985415 0.129241 -0.951632
v -4.016387 0.106158 -2.149218
v -1.999478 0.000000 -0.999739
v -1.999478 0.000000 -1.999478
v -0.999739 0.000000 -0.999739
v -0.915138 -0.099413 -2.024219
v -4.998696 0.000000 1.999478
v -4.962973 -0.072623 1.076937
v -3.968842 -0.037860 1.883925
v -3.969063 0.039979 1.161799
v -4.998696 0.000000 4.998696
v -4.998696 0.000000 3.998957
v -3.998957 0.000000 4.998696
v -3.998957 0.000000 3.998957
v -1.986969 -0.002193 5.038493
v -1.999478 0.000000 3.998957
v -0.928978 0.018062 5.078073
v -1.030739 0.052019 3.939867
v 0.988784 -0.033722 1.954853
v 0.999739 0.000000 0.999739
v 2.137495 0.267098 2.126140
v 1.999478 0.000000 0.999739
v 0.999739 0.000000 4.998696
v 0.999739 0.000000 3.998957
v 1.999478 0.000000 4.998696
v 2.066721 0.332778 4.024746
v 3.998957 0.000000 4.998696
v 3.843558 0.164512 3.873830
v 4.998696 0.000000 4.998696
v 4.998696 0.000000 3.998957
vt 2.917523 2.920749
vt 3.402030 2.921185
vt 2.917141 3.405467
vt 0.013577 2.917242
vt 0.497329 2.919125
vt 0.011602 3.401356
vt 0.017196 0.060349
vt 0.496403 0.000161
vt 0.018181 0.500531
vt 2.922185 0.016022
vt 3.406276 0.015655
vt 2.922119 0.499481
vt 1.464225 2.922236
vt 1.872293 2.842542
vt 1.463966 3.405357
vt 1.511579 1.480502
vt 1.956029 1.464027
vt 1.393284 1.874233
vt 2.920382 1.467248
vt 3.404433 1.468334
vt 3.403660 1.952453
vt -1.359204 2.888223
vt -1.082462 2.832929
vt -1.440268 3.394354
vt -1.445793 1.537737
vt -1.046600 1.415812
vt -1.362637 1.892607
vt 0.059538 1.479102
vt 0.501961 1.467640
vt 0.016851 1.950587
vt -1.415700 -0.062072
vt -0.948019 0.016324
vt -0.925924 0.439958
vt -1.430447 -1.433123
vt -0.948975 -1.472292
vt -1.415994 -0.894693
vt 0.004446 -1.404900
vt 0.502334 -1.433685
vt 0.019539 -0.950785
vt 1.465753 0.017250
vt 1.953094 0.007450
vt 1.468062 0.499488
vt 1.514907 -1.432456
vt 2.048301 -1.462751
vt 1.469261 -0.913738
vt 2.920456 -1.436402
vt 3.404792 -1.437386
vt 2.921657 -0.952599
vt 2.432920 2.920465
vt 2.432358 3.405182
vt 1.916537 1.888383
vt 2.358967 1.872747
vt 1.952334 2.440272
vt 2.417885 2.305164
vt 2.979346 1.901770
vt 2.978252 2.386081
vt 3.402810 2.436788
vt -0.470046 2.915031
vt -0.472717 3.399366
vt -1.047232 1.896965
vt -0.465834 1.949329
vt -0.467607 2.431898
vt -1.008969 2.440021
vt 0.015455 2.433748
vt 0.500840 1.951288
vt 0.499066 2.435349
vt -0.469902 0.042810
vt -0.465185 0.500450
vt -0.952251 -0.966855
vt -0.467530 -0.979799
vt -0.465515 -0.422782
vt -0.948343 -0.466497
vt 0.014854 -0.491918
vt 0.502830 -0.950918
vt 0.502991 -0.467144
vt 2.440447 0.016689
vt 2.438653 0.498831
vt 1.897879 -0.907813
vt 2.435721 -0.952592
vt 2.403141 -0.444076
vt 1.952404 -0.476570
vt 2.921009 -0.468039
vt 3.405437 -0.953020
vt 3.405711 -0.469000
vt 0.981004 2.920774
vt 0.495685 3.403119
vt 0.979790 3.404604
vt 1.027380 1.964348
vt 0.982547 2.437114
vt 1.509514 2.448593
vt 0.984558 1.467908
vt 0.501626 0.500722
vt 0.984971 0.500526
vt 0.501493 0.984279
vt 0.980562 0.967601
vt 1.510033 0.996702
vt 1.953519 0.497743
vt 1.954576 0.982542
vt 2.437042 1.465484
vt 2.438014 0.982506
vt 2.921535 0.983334
vt 3.406128 0.499874
vt 3.405500 0.984159
vt -2.405856 2.911611
vt -1.922877 2.911114
vt -2.405582 3.394258
vt -1.922924 3.394093
vt -2.405864 1.945630
vt -1.923208 1.946555
vt -2.406276 2.428800
vt -1.923693 2.428864
vt -1.452834 2.330735
vt -2.404211 1.462394
vt -1.922023 1.464846
vt -2.399703 0.496759
vt -1.908746 0.477317
vt -1.910603 1.059199
vt -2.402097 0.979499
vt -1.409243 0.437836
vt -1.428211 0.959536
vt -0.945315 0.961181
vt -0.464745 1.466747
vt -0.465030 0.983926
vt 0.017897 0.983857
vt -2.394522 0.014569
vt -1.895622 -0.024937
vt -2.395499 -0.950464
vt -1.916492 -0.975891
vt -2.395180 -0.467973
vt -1.913328 -0.468934
vt -1.417016 -0.411965
vt -2.395346 -1.433225
vt -1.912744 -1.433524
vt -2.395671 -2.398801
vt -1.912822 -2.398979
vt -2.395492 -1.915952
vt -1.912696 -1.916065
vt -1.429857 -2.399153
vt -1.429638 -1.916051
vt -0.946869 -2.399425
vt -0.912874 -1.955231
vt -0.463475 -1.432626
vt -0.463864 -2.398831
vt -0.458259 -1.934937
vt 0.018687 -2.398653
vt 0.053129 -1.954264
vt 0.501060 -2.399120
vt 0.501800 -1.916410
vt 0.984474 0.018143
vt 0.988704 -0.948459
vt 0.979530 -0.441043
vt 1.542961 -0.533333
vt 0.984850 -1.434703
vt 0.983572 -2.400145
vt 0.984697 -1.916994
vt 1.466560 -2.401833
vt 1.467520 -1.917901
vt 1.949865 -2.404511
vt 1.951146 -1.922003
vt 2.357731 -1.371493
vt 2.434808 -2.405129
vt 2.434727 -1.920437
vt 2.919133 -2.405365
vt 2.919610 -1.920983
vt 3.403370 -2.405919
vt 3.403970 -1.921679
vt 3.401726 3.405771
vt 1.947819 3.404911
vt -0.957507 3.396852
vn 0.000000 1.000000 -0.000000
vn -0.027195 0.997011 0.072313
vn 0.124982 0.992159 0.000000
vn -0.108609 0.993793 0.024081
vn -0.073156 0.989890 -0.121513
vn -0.111941 0.991877 0.060414
vn -0.110284 0.987763 0.110284
vn 0.052345 0.996348 0.067462
vn 0.103545 0.994143 -0.030952
vn 0.053384 0.997146 -0.053384
vn -0.156686 0.987648 0.000000
vn 0.087389 0.987104 -0.134121
vn -0.091356 0.995818 0.000000
vn -0.110965 0.979186 0.169943
vn 0.188988 0.969147 -0.158236
vn -0.052240 0.998635 0.000000
vn -0.085032 0.995367 0.044884
vn -0.044634 0.999003 0.000000
vn -0.039908 0.998406 0.039908
vn 0.153714 0.988115 -0.000000
vn 0.152233 0.988345 -0.000000
vn 0.121952 0.991349 0.048523
vn 0.120737 0.985315 0.120737
vn -0.044905 0.996377 0.072222
vn 0.041728 0.998899 0.021449
vn 0.061341 0.996850 -0.050268
vn -0.088304 0.995874 0.020895
vn -0.000272 0.998764 -0.049694
vn -0.058387 0.998271 -0.006734
vn 0.156686 0.987648 -0.000000
vn 0.180309 0.979637 0.088321
vn 0.037359 0.965831 -0.256464
vn 0.143462 0.985500 0.090604
vn 0.232250 0.972656 -0.000000
vn 0.091298 0.995824 0.000000
vn -0.016509 0.994561 0.102840
vn 0.093896 0.978633 0.182922
vn 0.000000 0.995325 -0.096584
vn 0.088924 0.992061 -0.088924
vn 0.048493 0.998824 0.000000
vn 0.046882 0.998900 -0.000000
vn -0.107997 0.994151 0.000000
vn 0.000000 0.972759 -0.231819
vn 0.000000 0.999050 -0.043584
vn -0.119569 0.992826 0.000000
vn -0.146058 0.989276 0.000000
vn -0.198697 0.980061 0.000000
vn -0.021462 0.998892 -0.041877
vn 0.075008 0.995527 0.057436
vn -0.097603 0.993177 0.063829
vn -0.123431 0.990470 -0.061111
vn -0.064158 0.995875 -0.064158
vn 0.074339 0.995382 -0.060727
vn -0.060611 0.996092 -0.064247
vn 0.000000 0.997734 0.067282
vn 0.000000 0.999814 -0.019271
vn 0.059463 0.998231 -0.000000
vn 0.131253 0.990939 0.028502
vn 0.069964 0.997550 0.000000
vn -0.126748 0.972856 0.193614
vn 0.058971 0.998260 0.000000
vn -0.019969 0.999801 0.000000
vn 0.048517 0.993071 0.107031
vn 0.010601 0.999944 0.000000
vn -0.039017 0.999239 0.000000
vn 0.000000 0.999424 -0.033927
vn -0.016870 0.999858 0.000000
vn -0.107447 0.989654 -0.095079
vn -0.056999 0.996746 -0.056999
vn 0.000000 0.999997 -0.002284
vn 0.021586 0.999765 0.001849
vn 0.000000 0.999807 0.019621
vn -0.019229 0.999812 0.002340
vn 0.021812 0.999374 0.027865
vn -0.047490 0.998872 0.000000
vn -0.154202 0.971987 -0.177380
vn 0.035671 0.998727 0.035671
vn -0.023082 0.995342 0.093608
vn -0.257554 0.965762 0.031144
vn -0.188712 0.978758 -0.080132
vn -0.074347 0.972332 -0.221455
vn 0.000000 0.987648 0.156686
vn -0.297685 0.942872 0.149583
vn 0.000000 0.946288 0.323326
vn 0.000000 0.968430 0.249286
vn 0.134378 0.988781 0.065227
vn 0.140995 0.990010 -0.000000
vn 0.000000 0.989474 0.144711
vn -0.000000 0.998923 0.046389
vn -0.000000 0.995852 0.090985
vn 0.083305 0.967774 -0.237641
vn -0.050512 0.997445 -0.050512
vn 0.000000 0.985913 -0.167262
vn -0.020846 0.999783 0.000000
vn 0.000000 0.999871 0.016051
vn 0.002663 0.998712 0.050661
vn 0.000000 0.987648 -0.156686
vn -0.182626 0.971941 0.148249
vn 0.154358 0.987777 -0.021706
vn -0.075247 0.990874 0.111836
vn -0.099127 0.993437 -0.057073
vn 0.000000 0.993470 0.114095
vn 0.123605 0.991832 -0.031473
vn 0.068294 0.995325 0.068294
vn 0.000000 0.992774 0.119997
vn 0.070196 0.996426 0.046985
vn 0.114746 0.993395 0.000000
vn 0.001458 0.998094 -0.061699
vn -0.047716 0.998839 -0.006685
vn -0.061062 0.996264 -0.061062
vn -0.011790 0.998701 -0.049566
vn 0.052798 0.997226 -0.052472
vn 0.155092 0.977596 -0.142311
vn 0.000000 0.966017 -0.258477
vn -0.000000 0.994842 0.101437
vn 0.091822 0.995478 0.024354
vn -0.107547 0.994067 -0.016285
vn 0.152285 0.976534 -0.152285
vn 0.011767 0.999862 -0.011767
vn 0.050178 0.997479 -0.050178
vn 0.044117 0.997768 -0.050126
vn 0.092263 0.994619 0.047124
vn -0.104609 0.988997 -0.104609
vn -0.104569 0.988889 -0.105659
vn -0.057159 0.991730 -0.114914
vn 0.000000 0.991112 -0.133029
vn -0.212479 0.974595 0.070839
vn -0.116882 0.990871 -0.067175
vn 0.064531 0.997822 0.013651
vn -0.085734 0.994390 -0.061955
vn -0.054200 0.998530 0.000000
vn -0.088504 0.993617 0.069940
vn -0.109888 0.993810 -0.016314
vn -0.118734 0.989441 0.083118
vn 0.132674 0.989200 0.062305
vn -0.133168 0.972004 0.193586
vn 0.068670 0.997489 0.017296
vn -0.000000 0.998451 0.055632
vn 0.075354 0.994306 -0.075354
vn 0.042944 0.997512 0.055905
vn -0.105269 0.991050 -0.082092
vn -0.044436 0.997957 0.045894
vn 0.058789 0.992523 0.106969
vn 0.062087 0.996138 -0.062087
vn -0.029828 0.997667 -0.061410
vn -0.018218 0.999668 0.018218
vn 0.110506 0.985840 -0.126125
vn 0.040824 0.997895 0.050390
vn -0.095285 0.990879 -0.095285
vn 0.022401 0.999521 0.021338
vn -0.108488 0.988001 -0.109931
vn -0.019046 0.999815 -0.002532
vn -0.051497 0.998081 0.034380
vn 0.021250 0.999548 0.021250
vn 0.050403 0.998729 -0.000000
vn 0.034085 0.999419 0.000000
vn -0.049105 0.997586 -0.049105
vn -0.225074 0.958646 -0.174180
vn 0.000000 0.973018 -0.230727
vn -0.029169 0.995275 0.092612
vn -0.155092 0.977596 -0.142311
vn -0.038927 0.991034 -0.127814
vn -0.297742 0.954646 0.000000
vn 0.064690 0.942930 0.326646
vn 0.187101 0.982268 0.011930
vn 0.144053 0.989561 0.004123
vn 0.196182 0.938389 0.284497
s off
f 109/1/1 31/2/1 37/3/1
f 113/4/1 43/5/1 53/6/1
f 117/7/2 69/8/2 71/9/2
f 121/10/1 63/11/1 73/12/1
f 125/13/3 75/14/3 60/15/3
f 129/16/4 76/17/4 78/18/4
f 133/19/1 54/20/1 12/21/1
f 137/22/5 83/23/5 28/24/5
f 141/25/6 84/26/6 86/27/6
f 145/28/7 66/29/7 88/30/7
f 149/31/8 91/32/8 20/33/8
f 153/34/9 92/35/9 94/36/9
f 157/37/10 44/38/10 96/39/10
f 161/40/11 99/41/11 48/42/11
f 165/43/12 100/44/12 102/45/12
f 169/46/1 38/47/1 104/48/1
f 75/14/13 107/49/13 36/50/13
f 107/49/1 109/1/1 36/50/1
f 22/51/14 81/52/14 74/53/14
f 74/53/15 106/54/15 75/14/15
f 81/52/16 80/55/16 108/56/16
f 106/54/17 108/56/17 109/1/17
f 80/55/18 12/21/18 30/57/18
f 108/56/19 30/57/19 109/1/19
f 83/23/20 111/58/20 52/59/20
f 111/58/1 113/4/1 52/59/1
f 23/60/21 89/61/21 110/62/21
f 82/63/22 110/62/22 83/23/22
f 89/61/1 88/30/1 110/62/1
f 110/62/1 112/64/1 111/58/1
f 88/30/1 18/65/1 112/64/1
f 112/64/1 42/66/1 113/4/1
f 91/32/23 115/67/23 70/68/23
f 115/67/24 117/7/24 71/9/24
f 24/69/25 97/70/25 114/71/25
f 90/72/26 114/71/26 115/67/26
f 97/70/27 96/39/27 114/71/27
f 114/71/28 116/73/28 115/67/28
f 96/39/1 19/74/1 68/75/1
f 116/73/29 68/75/29 117/7/29
f 99/41/30 119/76/30 72/77/30
f 119/76/1 121/10/1 72/77/1
f 25/78/31 105/79/31 118/80/31
f 98/81/32 118/80/32 119/76/32
f 105/79/33 104/48/33 118/80/33
f 118/80/34 120/82/34 121/10/34
f 104/48/1 16/83/1 120/82/1
f 120/82/1 62/84/1 121/10/1
f 43/5/1 123/85/1 6/86/1
f 123/85/1 125/13/1 61/87/1
f 18/65/35 79/88/35 42/66/35
f 42/66/1 122/89/1 43/5/1
f 79/88/36 78/18/36 122/89/36
f 122/89/35 124/90/35 123/85/35
f 78/18/37 22/51/37 74/53/37
f 124/90/7 74/53/7 125/13/7
f 66/29/38 127/91/38 79/88/38
f 127/91/39 129/16/39 79/88/39
f 9/92/1 49/93/1 67/94/1
f 67/94/40 126/95/40 66/29/40
f 49/93/38 48/42/38 128/96/38
f 126/95/41 128/96/41 129/16/41
f 48/42/1 21/97/1 77/98/1
f 128/96/42 77/98/42 129/16/42
f 76/17/43 131/99/43 22/51/43
f 131/99/44 133/19/44 80/55/44
f 21/97/1 72/77/1 77/98/1
f 77/98/1 130/100/1 76/17/1
f 72/77/1 73/12/1 130/100/1
f 130/100/1 132/101/1 131/99/1
f 73/12/1 7/102/1 132/101/1
f 132/101/1 55/103/1 133/19/1
f 41/104/1 135/105/1 4/106/1
f 135/105/45 137/22/45 29/107/45
f 17/108/1 87/109/1 40/110/1
f 40/110/1 134/111/1 41/104/1
f 87/109/46 86/27/46 134/111/46
f 134/111/47 136/112/47 135/105/47
f 86/27/48 23/60/48 82/63/48
f 136/112/49 82/63/49 83/23/49
f 64/113/1 139/114/1 17/108/1
f 139/114/50 141/25/50 86/27/50
f 8/115/51 47/116/51 138/117/51
f 65/118/52 138/117/52 139/114/52
f 47/116/53 46/119/53 138/117/53
f 138/117/54 140/120/54 139/114/54
f 46/119/55 20/33/55 140/120/55
f 140/120/56 85/121/56 141/25/56
f 84/26/21 143/122/21 89/61/21
f 143/122/35 145/28/35 89/61/35
f 20/33/57 70/68/57 142/123/57
f 85/121/58 142/123/58 84/26/58
f 70/68/1 71/9/1 142/123/1
f 142/123/38 144/124/38 145/28/38
f 71/9/1 9/92/1 144/124/1
f 144/124/1 67/94/1 66/29/1
f 57/125/59 147/126/59 8/115/59
f 147/126/60 149/31/60 47/116/60
f 13/127/61 95/128/61 56/129/61
f 56/129/1 146/130/1 57/125/1
f 95/128/62 94/36/62 148/131/62
f 146/130/63 148/131/63 149/31/63
f 94/36/64 24/69/64 148/131/64
f 148/131/65 90/72/65 91/32/65
f 32/132/1 151/133/1 13/127/1
f 151/133/66 153/34/66 94/36/66
f 2/134/1 27/135/1 33/136/1
f 33/136/1 150/137/1 32/132/1
f 27/135/1 26/138/1 150/137/1
f 150/137/1 152/139/1 151/133/1
f 26/138/1 10/140/1 152/139/1
f 152/139/67 93/141/67 153/34/67
f 92/35/68 155/142/68 97/70/68
f 155/142/69 157/37/69 96/39/69
f 10/140/70 50/143/70 154/144/70
f 93/141/71 154/144/71 155/142/71
f 50/143/72 51/145/72 156/146/72
f 154/144/73 156/146/73 155/142/73
f 51/145/1 5/147/1 45/148/1
f 156/146/74 45/148/74 157/37/74
f 69/8/75 159/149/75 49/93/75
f 159/149/1 161/40/1 49/93/1
f 19/74/76 103/150/76 158/151/76
f 68/75/77 158/151/77 159/149/77
f 103/150/78 102/45/78 160/152/78
f 158/151/79 160/152/79 159/149/79
f 102/45/80 25/78/80 98/81/80
f 160/152/81 98/81/81 161/40/81
f 44/38/82 163/153/82 103/150/82
f 163/153/83 165/43/83 103/150/83
f 5/147/1 59/154/1 45/148/1
f 45/148/1 162/155/1 44/38/1
f 59/154/1 58/156/1 162/155/1
f 162/155/84 164/157/84 165/43/84
f 58/156/1 14/158/1 164/157/1
f 164/157/85 101/159/85 100/44/85
f 100/44/86 167/160/86 25/78/86
f 167/160/87 169/46/87 104/48/87
f 14/158/1 34/161/1 101/159/1
f 101/159/88 166/162/88 167/160/88
f 34/161/1 35/163/1 166/162/1
f 166/162/88 168/164/88 167/160/88
f 35/163/1 1/165/1 168/164/1
f 168/164/1 39/166/1 169/46/1
f 31/2/1 3/167/1 37/3/1
f 43/5/1 6/86/1 53/6/1
f 69/8/89 9/92/89 71/9/89
f 63/11/1 7/102/1 73/12/1
f 75/14/90 15/168/90 60/15/90
f 76/17/91 22/51/91 78/18/91
f 80/55/92 133/19/92 12/21/92
f 83/23/93 11/169/93 28/24/93
f 84/26/94 23/60/94 86/27/94
f 66/29/1 18/65/1 88/30/1
f 46/119/95 149/31/95 20/33/95
f 92/35/96 24/69/96 94/36/96
f 44/38/1 19/74/1 96/39/1
f 99/41/97 21/97/97 48/42/97
f 100/44/98 25/78/98 102/45/98
f 38/47/1 16/83/1 104/48/1
f 15/168/90 75/14/90 36/50/90
f 109/1/1 37/3/1 36/50/1
f 81/52/99 106/54/99 74/53/99
f 106/54/100 107/49/100 75/14/100
f 106/54/101 81/52/101 108/56/101
f 107/49/102 106/54/102 109/1/102
f 108/56/18 80/55/18 30/57/18
f 30/57/1 31/2/1 109/1/1
f 11/169/93 83/23/93 52/59/93
f 113/4/1 53/6/1 52/59/1
f 82/63/103 23/60/103 110/62/103
f 110/62/20 111/58/20 83/23/20
f 88/30/1 112/64/1 110/62/1
f 112/64/1 113/4/1 111/58/1
f 18/65/1 42/66/1 112/64/1
f 42/66/1 43/5/1 113/4/1
f 20/33/104 91/32/104 70/68/104
f 70/68/105 115/67/105 71/9/105
f 90/72/106 24/69/106 114/71/106
f 91/32/107 90/72/107 115/67/107
f 96/39/108 116/73/108 114/71/108
f 116/73/109 117/7/109 115/67/109
f 116/73/110 96/39/110 68/75/110
f 68/75/111 69/8/111 117/7/111
f 21/97/97 99/41/97 72/77/97
f 121/10/1 73/12/1 72/77/1
f 98/81/112 25/78/112 118/80/112
f 99/41/113 98/81/113 119/76/113
f 104/48/34 120/82/34 118/80/34
f 119/76/114 118/80/114 121/10/114
f 16/83/1 62/84/1 120/82/1
f 62/84/1 63/11/1 121/10/1
f 123/85/1 61/87/1 6/86/1
f 125/13/1 60/15/1 61/87/1
f 79/88/115 122/89/115 42/66/115
f 122/89/1 123/85/1 43/5/1
f 78/18/116 124/90/116 122/89/116
f 124/90/115 125/13/115 123/85/115
f 124/90/117 78/18/117 74/53/117
f 74/53/118 75/14/118 125/13/118
f 18/65/35 66/29/35 79/88/35
f 129/16/119 78/18/119 79/88/119
f 49/93/120 126/95/120 67/94/120
f 126/95/89 127/91/89 66/29/89
f 126/95/121 49/93/121 128/96/121
f 127/91/122 126/95/122 129/16/122
f 128/96/123 48/42/123 77/98/123
f 77/98/42 76/17/42 129/16/42
f 131/99/124 81/52/124 22/51/124
f 81/52/125 131/99/125 80/55/125
f 72/77/1 130/100/1 77/98/1
f 130/100/1 131/99/1 76/17/1
f 73/12/1 132/101/1 130/100/1
f 132/101/1 133/19/1 131/99/1
f 7/102/1 55/103/1 132/101/1
f 55/103/1 54/20/1 133/19/1
f 135/105/1 29/107/1 4/106/1
f 137/22/126 28/24/126 29/107/126
f 87/109/1 134/111/1 40/110/1
f 134/111/1 135/105/1 41/104/1
f 86/27/127 136/112/127 134/111/127
f 136/112/128 137/22/128 135/105/128
f 136/112/129 86/27/129 82/63/129
f 137/22/130 136/112/130 83/23/130
f 139/114/1 87/109/1 17/108/1
f 87/109/46 139/114/46 86/27/46
f 65/118/131 8/115/131 138/117/131
f 64/113/1 65/118/1 139/114/1
f 46/119/132 140/120/132 138/117/132
f 140/120/133 141/25/133 139/114/133
f 20/33/55 85/121/55 140/120/55
f 85/121/134 84/26/134 141/25/134
f 23/60/21 84/26/21 89/61/21
f 145/28/115 88/30/115 89/61/115
f 85/121/135 20/33/135 142/123/135
f 142/123/21 143/122/21 84/26/21
f 71/9/1 144/124/1 142/123/1
f 143/122/35 142/123/35 145/28/35
f 9/92/1 67/94/1 144/124/1
f 145/28/123 144/124/123 66/29/123
f 147/126/136 47/116/136 8/115/136
f 149/31/137 46/119/137 47/116/137
f 95/128/138 146/130/138 56/129/138
f 146/130/139 147/126/139 57/125/139
f 146/130/140 95/128/140 148/131/140
f 147/126/141 146/130/141 149/31/141
f 24/69/142 90/72/142 148/131/142
f 149/31/143 148/131/143 91/32/143
f 151/133/144 95/128/144 13/127/144
f 95/128/145 151/133/145 94/36/145
f 27/135/1 150/137/1 33/136/1
f 150/137/1 151/133/1 32/132/1
f 26/138/1 152/139/1 150/137/1
f 152/139/1 153/34/1 151/133/1
f 10/140/146 93/141/146 152/139/146
f 93/141/147 92/35/147 153/34/147
f 24/69/148 92/35/148 97/70/148
f 97/70/149 155/142/149 96/39/149
f 93/141/150 10/140/150 154/144/150
f 92/35/151 93/141/151 155/142/151
f 154/144/152 50/143/152 156/146/152
f 156/146/153 157/37/153 155/142/153
f 156/146/154 51/145/154 45/148/154
f 45/148/155 44/38/155 157/37/155
f 9/92/89 69/8/89 49/93/89
f 161/40/1 48/42/1 49/93/1
f 68/75/156 19/74/156 158/151/156
f 69/8/157 68/75/157 159/149/157
f 158/151/158 103/150/158 160/152/158
f 160/152/159 161/40/159 159/149/159
f 160/152/160 102/45/160 98/81/160
f 98/81/161 99/41/161 161/40/161
f 19/74/11 44/38/11 103/150/11
f 165/43/162 102/45/162 103/150/162
f 59/154/1 162/155/1 45/148/1
f 162/155/1 163/153/1 44/38/1
f 58/156/1 164/157/1 162/155/1
f 163/153/163 162/155/163 165/43/163
f 14/158/1 101/159/1 164/157/1
f 165/43/164 164/157/164 100/44/164
f 167/160/165 105/79/165 25/78/165
f 105/79/166 167/160/166 104/48/166
f 34/161/1 166/162/1 101/159/1
f 100/44/167 101/159/167 167/160/167
f 35/163/1 168/164/1 166/162/1
f 168/164/87 169/46/87 167/160/87
f 1/165/1 39/166/1 168/164/1
f 39/166/1 38/47/1 169/46/1
